<svg version="1.1" id="Layer_1" xmlns="http://www.w3.org/2000/svg" xmlns:xlink="http://www.w3.org/1999/xlink" x="0px" y="0px"
	 width="100%" viewBox="0 0 104 124" enable-background="new 0 0 104 124" xml:space="preserve">
<path fill="#FFFEFD" opacity="1.000000" stroke="none" 
	d="
M49.000000,125.000000 
	C33.015671,125.000000 17.031338,125.000000 1.047007,125.000000 
	C1.031338,124.849167 1.001945,124.698326 1.001938,124.547493 
	C0.999949,83.421143 1.000000,42.294792 1.000000,1.084220 
	C35.576389,1.084220 70.153053,1.084220 104.864853,1.084220 
	C104.864853,42.333050 104.864853,83.666458 104.864853,125.000000 
	C89.573914,125.000000 74.255615,125.000000 58.619530,124.644264 
	C62.849983,122.810791 67.398224,121.333046 72.306007,119.877151 
	C96.581589,108.935898 107.393127,81.884087 96.640312,58.070164 
	C93.202431,50.456417 88.091278,43.450981 82.938919,36.791431 
	C74.134422,25.411413 64.693138,14.524060 55.635323,3.570076 
	C54.710964,3.985861 54.372711,4.070755 54.119461,4.265942 
	C53.593800,4.671083 53.106709,5.127576 52.615101,5.575405 
	C38.822403,18.139929 31.572290,33.928009 29.309124,52.424393 
	C24.854671,52.088161 20.692472,51.422035 16.510061,51.251438 
	C12.246016,51.077507 9.718370,53.333183 8.206811,57.465015 
	C4.506743,67.579109 3.441772,77.841278 6.266570,88.223930 
	C10.584837,104.095863 20.253002,115.330742 36.238930,121.202179 
	C40.644440,122.665482 44.822220,123.832741 49.000000,125.000000 
z"/>
<path fill="#FE9103" opacity="1.000000" stroke="none" 
	d="
M71.946465,119.855301 
	C67.398224,121.333046 62.849983,122.810791 58.150871,124.644264 
	C55.299988,125.000000 52.599972,125.000000 49.449982,125.000000 
	C44.822220,123.832741 40.644440,122.665482 36.451805,120.946693 
	C42.512001,117.162628 47.843578,113.165138 50.901199,106.647644 
	C36.564621,91.438057 29.123274,73.768967 30.589823,52.863060 
	C42.083702,55.290321 49.325966,62.653442 53.812477,72.405350 
	C59.017853,83.719765 58.345379,95.273811 51.249229,107.437675 
	C58.296532,111.665817 65.121498,115.760567 71.946465,119.855301 
z"/>
<path fill="#DD2D01" opacity="1.000000" stroke="none" 
	d="
M72.306007,119.877159 
	C65.121498,115.760567 58.296532,111.665817 51.249229,107.437675 
	C58.345379,95.273811 59.017853,83.719765 53.812477,72.405350 
	C49.325966,62.653442 42.083702,55.290321 30.466673,52.693268 
	C29.957924,52.515800 29.592510,52.311966 29.592510,52.311966 
	C31.572290,33.928009 38.822403,18.139929 52.615101,5.575405 
	C53.106709,5.127576 53.593800,4.671083 54.119461,4.265942 
	C54.372711,4.070755 54.710964,3.985861 55.635323,3.570076 
	C64.693138,14.524060 74.134422,25.411413 82.938919,36.791431 
	C88.091278,43.450981 93.202431,50.456417 96.640312,58.070164 
	C107.393127,81.884087 96.581589,108.935898 72.306007,119.877159 
z"/>
<path fill="#FFC402" opacity="1.000000" stroke="none" 
	d="
M29.309124,52.424393 
	C29.592510,52.311966 29.957924,52.515800 30.081074,52.685593 
	C29.123274,73.768967 36.564621,91.438057 50.901199,106.647644 
	C47.843578,113.165138 42.512001,117.162628 36.224075,120.650665 
	C20.253002,115.330742 10.584837,104.095863 6.266570,88.223930 
	C3.441772,77.841278 4.506743,67.579109 8.206811,57.465015 
	C9.718370,53.333183 12.246016,51.077507 16.510061,51.251438 
	C20.692472,51.422035 24.854671,52.088161 29.309124,52.424393 
z"/>
</svg>