<svg version="1.1" id="Layer_1" xmlns="http://www.w3.org/2000/svg" xmlns:xlink="http://www.w3.org/1999/xlink" x="0px" y="0px"
	 width="100%" viewBox="0 0 143 157" enable-background="new 0 0 143 157" xml:space="preserve">
<path fill="#FAFAF9" opacity="1.000000" stroke="none" 
	d="
M80.000000,158.000000 
	C53.333332,158.000000 27.166666,158.000000 1.000000,158.000000 
	C1.000000,105.666664 1.000000,53.333332 1.000000,1.000000 
	C48.666668,1.000000 96.333336,1.000000 144.000000,1.000000 
	C144.000000,53.333332 144.000000,105.666664 144.000000,158.000000 
	C122.833336,158.000000 101.666664,158.000000 80.000000,158.000000 
M35.519928,69.069771 
	C54.179188,76.654091 73.413338,77.290794 92.799187,73.024551 
	C103.379517,70.696136 113.570358,66.939064 121.361534,58.741703 
	C129.678101,49.991566 129.941513,39.340675 121.409988,30.799313 
	C117.847023,27.232237 113.437653,24.177616 108.884377,21.991034 
	C90.374977,13.102413 70.803558,11.954145 50.921280,15.693196 
	C38.901798,17.953575 27.386271,21.836210 18.749157,31.246723 
	C11.142508,39.534504 10.690438,49.655632 18.597532,57.596695 
	C23.157784,62.176540 29.336924,65.144424 35.519928,69.069771 
M27.737360,123.856735 
	C22.906549,120.836800 18.075739,117.816864 12.243689,114.171013 
	C13.325453,118.041985 13.809815,121.166359 15.052444,123.952553 
	C18.353857,131.354904 24.716801,135.758087 31.700645,139.026077 
	C49.915573,147.549500 69.061470,148.998871 88.677856,145.489288 
	C99.427322,143.566101 109.632759,140.126251 118.201454,133.057831 
	C123.798256,128.440964 128.104111,123.023834 127.176712,114.746819 
	C99.140785,137.805695 53.415531,136.354675 27.737360,123.856735 
M18.248606,70.348427 
	C16.707232,69.162445 15.165859,67.976471 13.058666,66.355125 
	C12.916567,76.397774 17.730911,83.115692 25.158682,87.390259 
	C53.250820,103.556870 82.220604,103.484055 111.179710,90.008476 
	C120.458099,85.690948 127.659081,78.742226 127.460495,66.500061 
	C111.743851,79.761017 93.443977,84.355522 73.929756,84.963951 
	C54.236942,85.577950 35.500893,82.015831 18.248606,70.348427 
M51.912460,121.709038 
	C60.865696,122.133209 69.844231,123.191582 78.766350,122.835632 
	C92.793343,122.276039 106.023415,118.397598 117.461540,109.859512 
	C123.633446,105.252434 128.023911,99.494026 127.213257,90.569817 
	C110.392097,104.524452 90.974762,108.970581 70.211380,108.968681 
	C49.344757,108.966782 29.915911,104.226372 13.095744,90.329216 
	C12.730635,97.663292 15.504169,103.058067 20.216927,107.354584 
	C28.956682,115.322433 39.553585,119.480766 51.912460,121.709038 
z"/>
<path fill="#22211D" opacity="1.000000" stroke="none" 
	d="
M35.153664,68.953812 
	C29.336924,65.144424 23.157784,62.176540 18.597532,57.596695 
	C10.690438,49.655632 11.142508,39.534504 18.749157,31.246723 
	C27.386271,21.836210 38.901798,17.953575 50.921280,15.693196 
	C70.803558,11.954145 90.374977,13.102413 108.884377,21.991034 
	C113.437653,24.177616 117.847023,27.232237 121.409988,30.799313 
	C129.941513,39.340675 129.678101,49.991566 121.361534,58.741703 
	C113.570358,66.939064 103.379517,70.696136 92.799187,73.024551 
	C73.413338,77.290794 54.179188,76.654091 35.153664,68.953812 
z"/>
<path fill="#262521" opacity="1.000000" stroke="none" 
	d="
M28.089310,123.991608 
	C53.415531,136.354675 99.140785,137.805695 127.176712,114.746819 
	C128.104111,123.023834 123.798256,128.440964 118.201454,133.057831 
	C109.632759,140.126251 99.427322,143.566101 88.677856,145.489288 
	C69.061470,148.998871 49.915573,147.549500 31.700645,139.026077 
	C24.716801,135.758087 18.353857,131.354904 15.052444,123.952553 
	C13.809815,121.166359 13.325453,118.041985 12.243689,114.171013 
	C18.075739,117.816864 22.906549,120.836800 28.089310,123.991608 
z"/>
<path fill="#252420" opacity="1.000000" stroke="none" 
	d="
M18.517719,70.578201 
	C35.500893,82.015831 54.236942,85.577950 73.929756,84.963951 
	C93.443977,84.355522 111.743851,79.761017 127.460495,66.500061 
	C127.659081,78.742226 120.458099,85.690948 111.179710,90.008476 
	C82.220604,103.484055 53.250820,103.556870 25.158682,87.390259 
	C17.730911,83.115692 12.916567,76.397774 13.058666,66.355125 
	C15.165859,67.976471 16.707232,69.162445 18.517719,70.578201 
z"/>
<path fill="#252420" opacity="1.000000" stroke="none" 
	d="
M51.493927,121.607620 
	C39.553585,119.480766 28.956682,115.322433 20.216927,107.354584 
	C15.504169,103.058067 12.730635,97.663292 13.095744,90.329216 
	C29.915911,104.226372 49.344757,108.966782 70.211380,108.968681 
	C90.974762,108.970581 110.392097,104.524452 127.213257,90.569817 
	C128.023911,99.494026 123.633446,105.252434 117.461540,109.859512 
	C106.023415,118.397598 92.793343,122.276039 78.766350,122.835632 
	C69.844231,123.191582 60.865696,122.133209 51.493927,121.607620 
z"/>
</svg>