<svg version="1.1" id="Layer_1" xmlns="http://www.w3.org/2000/svg" xmlns:xlink="http://www.w3.org/1999/xlink" x="0px" y="0px"
	 width="100%" viewBox="0 0 596 126" enable-background="new 0 0 596 126" xml:space="preserve">
<path fill="#FEFDFD" opacity="1.000000" stroke="none" 
	d="
M398.000000,127.000000 
	C265.379089,127.000000 133.258179,127.000000 1.068631,127.000000 
	C1.068631,85.060387 1.068631,43.120636 1.068631,1.090441 
	C199.666641,1.090441 398.333313,1.090441 596.965454,1.090441 
	C596.965454,43.075092 596.965454,85.037567 596.965454,127.000000 
	C530.787292,127.000000 464.643646,127.000000 398.000000,127.000000 
M250.028870,64.024918 
	C250.300812,64.035492 250.572754,64.046066 251.063553,64.771706 
	C251.890991,67.122917 252.574707,69.536880 253.569565,71.814980 
	C259.360779,85.076073 270.115906,91.763863 284.375671,90.982635 
	C291.590637,90.587364 297.479584,87.110832 303.004639,82.024734 
	C303.004639,86.347733 303.200378,89.990013 302.963440,93.603928 
	C302.486328,100.880981 299.101807,106.654366 292.032532,108.793457 
	C283.778015,111.291176 275.266907,111.920425 267.924377,105.823586 
	C266.727081,104.829445 266.360046,102.893677 265.292725,101.669029 
	C264.132263,100.337524 262.767883,98.767456 261.196533,98.303596 
	C258.548492,97.521896 255.667007,97.530952 252.892365,97.208443 
	C251.607315,104.561226 254.911926,111.691582 261.614563,115.849602 
	C269.292816,120.612846 277.836517,121.532555 286.582947,120.910248 
	C303.687225,119.693275 314.328247,109.919510 315.686310,93.200829 
	C316.545502,82.623352 316.034271,71.934547 316.862671,60.998619 
	C317.229401,61.632225 317.808594,62.227650 317.930359,62.905281 
	C319.319885,70.637947 322.293457,77.517036 328.114105,83.031975 
	C344.387451,98.450722 376.878876,93.802109 385.185394,71.286865 
	C385.433472,70.614342 385.977509,70.051010 386.504913,69.253151 
	C395.613495,97.373032 437.869537,100.463676 452.443298,72.842575 
	C457.186859,87.045441 468.051636,91.719772 481.513947,91.960762 
	C496.329773,92.225990 508.907440,88.334564 514.246704,72.224335 
	C523.846069,91.064835 541.597290,94.305794 557.677307,90.847038 
	C569.095642,88.390984 578.809326,78.115349 579.738708,67.586975 
	C575.703308,67.076149 571.649780,66.563019 567.705994,66.063782 
	C560.333862,79.529663 552.359802,83.814934 540.979675,80.618927 
	C531.015869,77.820686 524.554749,68.075409 524.955200,55.881699 
	C543.503113,55.881699 562.076294,55.881699 580.578186,55.881699 
	C582.799500,35.573040 572.146301,18.567509 555.242981,14.993623 
	C542.770447,12.356536 531.402222,14.482107 521.936584,23.532152 
	C512.631897,32.428345 511.343445,44.283493 510.905975,55.504860 
	C506.174683,53.244541 501.898834,50.656956 497.274567,49.112652 
	C489.108521,46.385540 480.689331,44.425842 472.459259,41.876495 
	C468.789948,40.739899 465.850372,38.403107 465.934814,34.036827 
	C466.016541,29.812355 468.773102,27.481907 472.398407,26.024479 
	C484.042511,21.343380 493.945038,25.285986 499.490936,36.958351 
	C503.272888,36.372124 507.117340,35.776211 510.928833,35.185406 
	C509.658997,23.991348 503.765381,17.697178 492.530701,15.167108 
	C484.253204,13.303006 476.029602,13.446174 467.942413,16.224335 
	C459.258667,19.207447 454.901154,25.979176 452.651306,35.141445 
	C445.307312,19.904142 433.595703,13.372114 417.986053,14.070585 
	C402.814423,14.749456 392.010162,22.114731 386.440613,36.838657 
	C384.578339,33.578541 383.189117,30.323095 381.091888,27.616211 
	C371.453033,15.175667 358.457428,11.847999 343.664246,15.063229 
	C329.764435,18.084286 321.543396,27.143675 318.278809,40.903996 
	C317.956207,42.263767 316.869659,43.442299 316.366180,43.836781 
	C316.366180,34.397991 316.366180,24.959202 316.366180,15.365135 
	C312.323944,15.365135 308.640900,15.365135 304.597778,15.365135 
	C304.597778,18.306383 304.597778,20.878929 304.597778,23.008106 
	C299.808167,20.317501 295.417664,16.765415 290.409515,15.236483 
	C273.822906,10.172787 258.200287,19.268375 252.154709,36.658707 
	C251.603241,38.245010 250.158859,39.520901 249.032516,40.076710 
	C248.987900,30.608376 247.049561,21.755154 237.605103,17.389303 
	C223.276581,10.765720 210.265671,13.166448 198.929810,25.830410 
	C198.929810,21.651669 198.929810,18.539249 198.929810,15.347427 
	C195.069809,15.347427 191.519974,15.347427 188.005646,15.347427 
	C188.005646,40.637825 188.005646,65.576683 188.005646,90.758766 
	C192.144867,90.758766 196.066193,90.758766 200.495850,90.758766 
	C200.495850,88.658707 200.480133,86.694313 200.498383,84.730240 
	C200.628418,70.741776 200.306396,56.729221 201.040848,42.772362 
	C201.663437,30.941046 210.698395,24.002254 222.524307,25.026554 
	C230.592651,25.725391 235.769577,30.880928 235.977036,39.580799 
	C236.342331,54.899723 236.201874,70.230728 236.270889,85.556686 
	C236.278732,87.299255 236.271927,89.041885 236.271927,90.828850 
	C240.710693,90.828850 244.363785,90.828850 248.548157,90.884171 
	C248.665359,90.593361 248.782547,90.302544 249.075607,89.119797 
	C249.123062,80.723145 249.170502,72.326500 250.028870,64.024918 
M117.193649,66.717323 
	C121.196648,80.976151 130.595886,89.125092 145.121033,91.695007 
	C162.358246,94.744774 180.509644,84.779396 184.308350,68.671494 
	C186.260269,60.394691 186.607117,51.337582 185.649231,42.862541 
	C183.826736,26.737803 171.366867,15.666999 155.287308,14.072635 
	C137.891556,12.347764 123.633087,21.050949 117.928009,36.721001 
	C117.471497,37.974895 116.064171,38.882629 115.006638,39.075279 
	C115.105858,29.787609 113.423676,20.947815 104.094124,16.723835 
	C89.981720,10.334415 78.082123,14.680227 68.409431,26.606899 
	C63.818413,17.183004 56.288692,14.019635 46.910435,13.978821 
	C37.752972,13.938969 30.597265,18.143507 23.951729,25.720106 
	C23.951729,21.309629 23.951729,18.372746 23.951729,15.348604 
	C20.079754,15.348604 16.529602,15.348604 13.007778,15.348604 
	C13.007778,40.634796 13.007778,65.572014 13.007778,90.753799 
	C17.135315,90.753799 21.044203,90.753799 25.403954,90.753799 
	C25.403954,77.561592 25.173695,64.603851 25.513718,51.661098 
	C25.655993,46.245518 26.292156,40.624920 27.979767,35.519299 
	C30.478434,27.959942 38.797962,23.874823 46.982628,25.076950 
	C53.492661,26.033115 56.960499,30.194725 57.493664,39.325558 
	C58.017281,48.292774 57.746723,57.307610 57.782322,66.301720 
	C57.814396,74.405090 57.789093,82.508698 57.789093,90.712311 
	C62.257061,90.712311 66.167992,90.712311 70.404007,90.712311 
	C70.404007,76.288399 70.208145,62.145454 70.516869,48.013535 
	C70.616539,43.451500 71.353004,38.645889 73.017952,34.433861 
	C75.744492,27.536180 84.146721,23.786596 91.726234,25.116169 
	C98.511101,26.306345 101.818939,30.438795 102.215775,39.296951 
	C102.610481,48.107632 102.528992,56.941132 102.584854,65.765076 
	C102.637222,74.037071 102.596069,82.309647 102.596069,90.826508 
	C106.760574,90.826508 110.388008,90.826508 114.547256,90.884331 
	C114.663727,90.593216 114.780197,90.302101 115.072014,89.086594 
	C115.117386,81.414925 115.162758,73.743263 115.790833,66.042671 
	C116.179062,66.034607 116.567299,66.026543 117.193649,66.717323 
z"/>
<path fill="#A23737" opacity="1.000000" stroke="none" 
	d="
M316.137726,44.704956 
	C316.869659,43.442299 317.956207,42.263767 318.278809,40.903996 
	C321.543396,27.143675 329.764435,18.084286 343.664246,15.063229 
	C358.457428,11.847999 371.453033,15.175667 381.091888,27.616211 
	C383.189117,30.323095 384.578339,33.578541 386.440613,36.838657 
	C392.010162,22.114731 402.814423,14.749456 417.986053,14.070585 
	C433.595703,13.372114 445.307312,19.904142 452.651306,35.141445 
	C454.901154,25.979176 459.258667,19.207447 467.942413,16.224335 
	C476.029602,13.446174 484.253204,13.303006 492.530701,15.167108 
	C503.765381,17.697178 509.658997,23.991348 510.928833,35.185406 
	C507.117340,35.776211 503.272888,36.372124 499.490936,36.958351 
	C493.945038,25.285986 484.042511,21.343380 472.398407,26.024479 
	C468.773102,27.481907 466.016541,29.812355 465.934814,34.036827 
	C465.850372,38.403107 468.789948,40.739899 472.459259,41.876495 
	C480.689331,44.425842 489.108521,46.385540 497.274567,49.112652 
	C501.898834,50.656956 506.174683,53.244541 510.905975,55.504860 
	C511.343445,44.283493 512.631897,32.428345 521.936584,23.532152 
	C531.402222,14.482107 542.770447,12.356536 555.242981,14.993623 
	C572.146301,18.567509 582.799500,35.573040 580.578186,55.881699 
	C562.076294,55.881699 543.503113,55.881699 524.955200,55.881699 
	C524.554749,68.075409 531.015869,77.820686 540.979675,80.618927 
	C552.359802,83.814934 560.333862,79.529663 567.705994,66.063782 
	C571.649780,66.563019 575.703308,67.076149 579.738708,67.586975 
	C578.809326,78.115349 569.095642,88.390984 557.677307,90.847038 
	C541.597290,94.305794 523.846069,91.064835 514.246704,72.224335 
	C508.907440,88.334564 496.329773,92.225990 481.513947,91.960762 
	C468.051636,91.719772 457.186859,87.045441 452.443298,72.842575 
	C437.869537,100.463676 395.613495,97.373032 386.504913,69.253151 
	C385.977509,70.051010 385.433472,70.614342 385.185394,71.286865 
	C376.878876,93.802109 344.387451,98.450722 328.114105,83.031975 
	C322.293457,77.517036 319.319885,70.637947 317.930359,62.905281 
	C317.808594,62.227650 317.229401,61.632225 316.456726,60.658211 
	C316.079773,55.113518 316.108765,49.909241 316.137726,44.704956 
M333.967804,70.318642 
	C338.687836,78.576797 345.835327,82.049049 355.229034,81.136597 
	C363.747284,80.309174 369.494537,75.525558 372.398895,67.851639 
	C376.041382,58.227489 376.148438,48.243607 372.618164,38.507320 
	C369.383636,29.586712 361.518616,24.506769 352.146484,24.706442 
	C342.737640,24.906895 335.113007,30.269543 332.337067,39.395023 
	C329.250580,49.541283 329.251373,59.732052 333.967804,70.318642 
M405.002380,30.480350 
	C395.912750,40.523556 396.423676,52.451591 398.970520,64.408577 
	C401.287781,75.287582 409.470978,81.381508 420.056824,81.295250 
	C430.246368,81.212219 438.788025,74.899124 440.567902,64.385597 
	C441.791962,57.155323 442.130035,49.326584 440.720734,42.188496 
	C437.361176,25.171728 419.206360,19.219408 405.002380,30.480350 
M461.563934,51.071178 
	C459.344696,49.033367 457.125488,46.995556 454.624084,44.698643 
	C454.624084,52.526184 454.624084,59.727531 454.624084,67.275764 
	C457.497650,66.948425 460.555878,66.600060 463.704590,66.241379 
	C463.996307,67.109810 464.255035,67.870567 464.507568,68.633385 
	C468.552124,80.850815 486.690247,86.257011 496.555237,77.752159 
	C498.935028,75.700500 500.790894,71.448914 500.518127,68.422539 
	C500.304596,66.053238 496.637238,63.719715 494.107391,61.932274 
	C492.442413,60.755917 490.060822,60.612347 488.019531,59.946835 
	C479.400116,57.136726 470.787994,54.304329 461.563934,51.071178 
M536.680725,26.880304 
	C529.481079,30.692556 525.906555,36.747528 525.252563,45.053543 
	C539.313782,45.053543 553.042358,45.053543 566.965332,45.053543 
	C566.965332,43.848225 567.082275,42.875214 566.947754,41.938305 
	C564.953796,28.049824 551.934387,21.261509 536.680725,26.880304 
z"/>
<path fill="#A23737" opacity="1.000000" stroke="none" 
	d="
M316.251953,44.270870 
	C316.108765,49.909241 316.079773,55.113518 316.094238,60.806740 
	C316.034271,71.934547 316.545502,82.623352 315.686310,93.200829 
	C314.328247,109.919510 303.687225,119.693275 286.582947,120.910248 
	C277.836517,121.532555 269.292816,120.612846 261.614563,115.849602 
	C254.911926,111.691582 251.607315,104.561226 252.892365,97.208443 
	C255.667007,97.530952 258.548492,97.521896 261.196533,98.303596 
	C262.767883,98.767456 264.132263,100.337524 265.292725,101.669029 
	C266.360046,102.893677 266.727081,104.829445 267.924377,105.823586 
	C275.266907,111.920425 283.778015,111.291176 292.032532,108.793457 
	C299.101807,106.654366 302.486328,100.880981 302.963440,93.603928 
	C303.200378,89.990013 303.004639,86.347733 303.004639,82.024734 
	C297.479584,87.110832 291.590637,90.587364 284.375671,90.982635 
	C270.115906,91.763863 259.360779,85.076073 253.569565,71.814980 
	C252.574707,69.536880 251.890991,67.122917 250.995514,63.993057 
	C250.333160,58.167381 249.738831,53.120361 248.842209,47.821663 
	C248.736313,45.360306 248.932724,43.150623 249.129120,40.940941 
	C250.158859,39.520901 251.603241,38.245010 252.154709,36.658707 
	C258.200287,19.268375 273.822906,10.172787 290.409515,15.236483 
	C295.417664,16.765415 299.808167,20.317501 304.597778,23.008106 
	C304.597778,20.878929 304.597778,18.306383 304.597778,15.365135 
	C308.640900,15.365135 312.323944,15.365135 316.366180,15.365135 
	C316.366180,24.959202 316.366180,34.397991 316.251953,44.270870 
M284.372772,24.715591 
	C274.540466,23.945984 266.723267,31.142973 264.354248,40.192707 
	C262.075012,48.899319 262.152466,57.703964 264.879852,66.326706 
	C267.669342,75.145828 274.580048,80.224480 283.406097,80.297493 
	C292.462524,80.372414 299.684540,75.254005 302.483337,66.336998 
	C305.243347,57.543648 305.431335,48.514870 302.678162,39.753719 
	C300.051270,31.394449 294.542511,25.725544 284.372772,24.715591 
z"/>
<path fill="#A13535" opacity="1.000000" stroke="none" 
	d="
M115.208130,66.071594 
	C115.162758,73.743263 115.117386,81.414925 114.797974,89.637505 
	C114.289490,90.349358 114.119995,90.562050 114.015450,90.826508 
	C110.388008,90.826508 106.760574,90.826508 102.596069,90.826508 
	C102.596069,82.309647 102.637222,74.037071 102.584854,65.765076 
	C102.528992,56.941132 102.610481,48.107632 102.215775,39.296951 
	C101.818939,30.438795 98.511101,26.306345 91.726234,25.116169 
	C84.146721,23.786596 75.744492,27.536180 73.017952,34.433861 
	C71.353004,38.645889 70.616539,43.451500 70.516869,48.013535 
	C70.208145,62.145454 70.404007,76.288399 70.404007,90.712311 
	C66.167992,90.712311 62.257061,90.712311 57.789093,90.712311 
	C57.789093,82.508698 57.814396,74.405090 57.782322,66.301720 
	C57.746723,57.307610 58.017281,48.292774 57.493664,39.325558 
	C56.960499,30.194725 53.492661,26.033115 46.982628,25.076950 
	C38.797962,23.874823 30.478434,27.959942 27.979767,35.519299 
	C26.292156,40.624920 25.655993,46.245518 25.513718,51.661098 
	C25.173695,64.603851 25.403954,77.561592 25.403954,90.753799 
	C21.044203,90.753799 17.135315,90.753799 13.007778,90.753799 
	C13.007778,65.572014 13.007778,40.634796 13.007778,15.348604 
	C16.529602,15.348604 20.079754,15.348604 23.951729,15.348604 
	C23.951729,18.372746 23.951729,21.309629 23.951729,25.720106 
	C30.597265,18.143507 37.752972,13.938969 46.910435,13.978821 
	C56.288692,14.019635 63.818413,17.183004 68.409431,26.606899 
	C78.082123,14.680227 89.981720,10.334415 104.094124,16.723835 
	C113.423676,20.947815 115.105858,29.787609 114.755753,39.767517 
	C114.713577,42.661327 114.922287,44.862904 115.097504,47.527176 
	C115.112053,54.017117 115.160095,60.044353 115.208130,66.071594 
z"/>
<path fill="#A23737" opacity="1.000000" stroke="none" 
	d="
M115.130997,47.064476 
	C114.922287,44.862904 114.713577,42.661327 114.801781,40.205490 
	C116.064171,38.882629 117.471497,37.974895 117.928009,36.721001 
	C123.633087,21.050949 137.891556,12.347764 155.287308,14.072635 
	C171.366867,15.666999 183.826736,26.737803 185.649231,42.862541 
	C186.607117,51.337582 186.260269,60.394691 184.308350,68.671494 
	C180.509644,84.779396 162.358246,94.744774 145.121033,91.695007 
	C130.595886,89.125092 121.196648,80.976151 117.116714,65.942001 
	C116.403511,59.132607 115.767258,53.098541 115.130997,47.064476 
M147.911346,81.066162 
	C160.985016,82.059143 169.712296,76.189857 172.091446,63.421459 
	C173.314285,56.858696 173.420395,49.762184 172.367645,43.172634 
	C170.496017,31.457460 161.935669,24.665188 151.043930,24.703518 
	C140.012100,24.742338 131.799149,31.408081 129.997009,43.346382 
	C128.975937,50.110409 129.108887,57.328178 130.273102,64.073898 
	C131.832718,73.110558 137.661102,79.109138 147.911346,81.066162 
z"/>
<path fill="#A23636" opacity="1.000000" stroke="none" 
	d="
M249.080811,40.508827 
	C248.932724,43.150623 248.736313,45.360306 248.811035,48.281319 
	C249.127441,53.971714 249.172699,58.950779 249.217957,63.929848 
	C249.170502,72.326500 249.123062,80.723145 248.800873,89.654602 
	C248.290924,90.350418 248.121170,90.563568 248.016861,90.828850 
	C244.363785,90.828850 240.710693,90.828850 236.271927,90.828850 
	C236.271927,89.041885 236.278732,87.299255 236.270889,85.556686 
	C236.201874,70.230728 236.342331,54.899723 235.977036,39.580799 
	C235.769577,30.880928 230.592651,25.725391 222.524307,25.026554 
	C210.698395,24.002254 201.663437,30.941046 201.040848,42.772362 
	C200.306396,56.729221 200.628418,70.741776 200.498383,84.730240 
	C200.480133,86.694313 200.495850,88.658707 200.495850,90.758766 
	C196.066193,90.758766 192.144867,90.758766 188.005646,90.758766 
	C188.005646,65.576683 188.005646,40.637825 188.005646,15.347427 
	C191.519974,15.347427 195.069809,15.347427 198.929810,15.347427 
	C198.929810,18.539249 198.929810,21.651669 198.929810,25.830410 
	C210.265671,13.166448 223.276581,10.765720 237.605103,17.389303 
	C247.049561,21.755154 248.987900,30.608376 249.080811,40.508827 
z"/>
<path fill="#E5C8C8" opacity="1.000000" stroke="none" 
	d="
M115.097511,47.527176 
	C115.767258,53.098541 116.403511,59.132607 116.997650,65.592575 
	C116.567299,66.026543 116.179062,66.034607 115.499481,66.057129 
	C115.160095,60.044353 115.112053,54.017117 115.097511,47.527176 
z"/>
<path fill="#E6CACA" opacity="1.000000" stroke="none" 
	d="
M249.623413,63.977383 
	C249.172699,58.950779 249.127441,53.971714 249.113342,48.532990 
	C249.738831,53.120361 250.333160,58.167381 250.886093,63.635521 
	C250.572754,64.046066 250.300812,64.035492 249.623413,63.977383 
z"/>
<path fill="#A23737" opacity="1.000000" stroke="none" 
	d="
M114.281357,90.855423 
	C114.119995,90.562050 114.289490,90.349358 114.710297,90.099701 
	C114.780197,90.302101 114.663727,90.593216 114.281357,90.855423 
z"/>
<path fill="#A23737" opacity="1.000000" stroke="none" 
	d="
M248.282501,90.856506 
	C248.121170,90.563568 248.290924,90.350418 248.712952,90.100571 
	C248.782547,90.302544 248.665359,90.593361 248.282501,90.856506 
z"/>
<path fill="#FEFDFD" opacity="1.000000" stroke="none" 
	d="
M333.794983,69.983383 
	C329.251373,59.732052 329.250580,49.541283 332.337067,39.395023 
	C335.113007,30.269543 342.737640,24.906895 352.146484,24.706442 
	C361.518616,24.506769 369.383636,29.586712 372.618164,38.507320 
	C376.148438,48.243607 376.041382,58.227489 372.398895,67.851639 
	C369.494537,75.525558 363.747284,80.309174 355.229034,81.136597 
	C345.835327,82.049049 338.687836,78.576797 333.794983,69.983383 
z"/>
<path fill="#FEFDFD" opacity="1.000000" stroke="none" 
	d="
M405.264893,30.230337 
	C419.206360,19.219408 437.361176,25.171728 440.720734,42.188496 
	C442.130035,49.326584 441.791962,57.155323 440.567902,64.385597 
	C438.788025,74.899124 430.246368,81.212219 420.056824,81.295250 
	C409.470978,81.381508 401.287781,75.287582 398.970520,64.408577 
	C396.423676,52.451591 395.912750,40.523556 405.264893,30.230337 
z"/>
<path fill="#FDFBFB" opacity="1.000000" stroke="none" 
	d="
M461.868561,51.275627 
	C470.787994,54.304329 479.400116,57.136726 488.019531,59.946835 
	C490.060822,60.612347 492.442413,60.755917 494.107391,61.932274 
	C496.637238,63.719715 500.304596,66.053238 500.518127,68.422539 
	C500.790894,71.448914 498.935028,75.700500 496.555237,77.752159 
	C486.690247,86.257011 468.552124,80.850815 464.507568,68.633385 
	C464.255035,67.870567 463.996307,67.109810 463.704590,66.241379 
	C460.555878,66.600060 457.497650,66.948425 454.624084,67.275764 
	C454.624084,59.727531 454.624084,52.526184 454.624084,44.698643 
	C457.125488,46.995556 459.344696,49.033367 461.868561,51.275627 
z"/>
<path fill="#FEFDFD" opacity="1.000000" stroke="none" 
	d="
M537.015869,26.681633 
	C551.934387,21.261509 564.953796,28.049824 566.947754,41.938305 
	C567.082275,42.875214 566.965332,43.848225 566.965332,45.053543 
	C553.042358,45.053543 539.313782,45.053543 525.252563,45.053543 
	C525.906555,36.747528 529.481079,30.692556 537.015869,26.681633 
z"/>
<path fill="#FEFDFD" opacity="1.000000" stroke="none" 
	d="
M284.812134,24.760448 
	C294.542511,25.725544 300.051270,31.394449 302.678162,39.753719 
	C305.431335,48.514870 305.243347,57.543648 302.483337,66.336998 
	C299.684540,75.254005 292.462524,80.372414 283.406097,80.297493 
	C274.580048,80.224480 267.669342,75.145828 264.879852,66.326706 
	C262.152466,57.703964 262.075012,48.899319 264.354248,40.192707 
	C266.723267,31.142973 274.540466,23.945984 284.812134,24.760448 
z"/>
<path fill="#FEFDFD" opacity="1.000000" stroke="none" 
	d="
M147.473114,81.038223 
	C137.661102,79.109138 131.832718,73.110558 130.273102,64.073898 
	C129.108887,57.328178 128.975937,50.110409 129.997009,43.346382 
	C131.799149,31.408081 140.012100,24.742338 151.043930,24.703518 
	C161.935669,24.665188 170.496017,31.457460 172.367645,43.172634 
	C173.420395,49.762184 173.314285,56.858696 172.091446,63.421459 
	C169.712296,76.189857 160.985016,82.059143 147.473114,81.038223 
z"/>
</svg>