<svg version="1.1" id="Layer_1" xmlns="http://www.w3.org/2000/svg" xmlns:xlink="http://www.w3.org/1999/xlink" x="0px" y="0px"
	 width="100%" viewBox="0 0 105 107" enable-background="new 0 0 105 107" xml:space="preserve">
<path fill="#F5F6F6" opacity="1.000000" stroke="none" 
	d="
M106.000000,37.000000 
	C106.000000,53.687561 106.000000,70.375122 105.635818,87.572952 
	C103.413773,88.795944 101.349380,89.198845 99.734123,90.275536 
	C93.092102,94.702896 85.862450,98.736397 85.000000,108.000000 
	C57.093109,108.000000 29.186218,108.000000 1.000000,108.000000 
	C1.000000,92.313545 1.000000,76.625427 1.362598,60.468166 
	C2.450389,60.000519 3.175583,60.002018 4.018489,60.426140 
	C4.934398,64.442459 5.453135,68.125969 6.574780,71.615700 
	C15.958712,100.811493 49.918655,114.481178 77.087517,100.305702 
	C96.867035,89.985657 110.765182,64.851128 100.903038,37.143898 
	C102.909569,37.062366 104.454788,37.031185 106.000000,37.000000 
z"/>
<path fill="#E9F4F7" opacity="1.000000" stroke="none" 
	d="
M3.900776,60.003517 
	C3.175583,60.002018 2.450389,60.000519 1.362598,59.999508 
	C1.000000,40.415638 1.000000,20.831278 1.000000,1.000000 
	C16.019993,1.000000 31.041338,1.000000 46.536716,1.372335 
	C47.343407,3.179945 47.676060,4.615221 47.660141,6.230360 
	C39.993649,9.265411 31.913591,10.968095 25.508514,15.203693 
	C9.740759,25.630720 3.415992,41.354961 3.900776,60.003517 
z"/>
<path fill="#EBF6F8" opacity="1.000000" stroke="none" 
	d="
M73.000000,1.000000 
	C83.890404,1.000000 94.780815,1.000000 106.000000,1.000000 
	C106.000000,5.009577 106.000000,9.028127 105.603653,13.531916 
	C99.819786,16.008133 94.432266,17.999111 88.728783,19.871368 
	C83.206352,16.330162 77.999893,12.907679 72.846039,9.012193 
	C72.932426,6.026127 72.966209,3.513064 73.000000,1.000000 
z"/>
<path fill="#F0F3F4" opacity="1.000000" stroke="none" 
	d="
M85.468910,108.000000 
	C85.862450,98.736397 93.092102,94.702896 99.734123,90.275536 
	C101.349380,89.198845 103.413773,88.795944 105.635818,88.041611 
	C106.000000,94.594597 106.000000,101.189194 106.000000,108.000000 
	C99.314148,108.000000 92.625984,108.000000 85.468910,108.000000 
z"/>
<path fill="#F4F6F5" opacity="1.000000" stroke="none" 
	d="
M89.044754,19.990089 
	C94.432266,17.999111 99.819786,16.008133 105.603653,14.008577 
	C106.000000,21.354250 106.000000,28.708502 106.000000,36.531376 
	C104.454788,37.031185 102.909569,37.062366 100.704254,36.875507 
	C96.377678,31.101675 92.711212,25.545883 89.044754,19.990089 
z"/>
<path fill="#E6EEDF" opacity="1.000000" stroke="none" 
	d="
M72.531349,1.000000 
	C72.966209,3.513064 72.932426,6.026127 72.471603,8.901849 
	C64.032608,8.193170 56.020660,7.121833 48.008713,6.050496 
	C47.676060,4.615221 47.343407,3.179945 47.005375,1.372335 
	C55.354233,1.000000 63.708466,1.000000 72.531349,1.000000 
z"/>
<path fill="#0E0F0D" opacity="1.000000" stroke="none" 
	d="
M47.660141,6.230360 
	C56.020660,7.121833 64.032608,8.193170 72.418991,9.374850 
	C77.999893,12.907679 83.206352,16.330162 88.728783,19.871368 
	C92.711212,25.545883 96.377678,31.101675 100.242935,36.925858 
	C110.765182,64.851128 96.867035,89.985657 77.087517,100.305702 
	C49.918655,114.481178 15.958712,100.811493 6.574780,71.615700 
	C5.453135,68.125969 4.934398,64.442459 4.018489,60.426144 
	C3.415992,41.354961 9.740759,25.630720 25.508514,15.203693 
	C31.913591,10.968095 39.993649,9.265411 47.660141,6.230360 
M21.484398,23.438118 
	C20.821831,24.254568 20.159264,25.071016 19.020224,26.195576 
	C18.721823,26.664713 18.423424,27.133848 17.581404,27.921043 
	C16.013783,30.598961 14.446162,33.276875 12.339200,36.400898 
	C11.539397,38.893421 10.739594,41.385948 9.364012,44.462143 
	C9.033822,46.934185 8.703633,49.406231 8.166035,52.475903 
	C8.189121,53.314205 8.212207,54.152504 8.081488,55.818157 
	C8.175121,57.211048 8.268756,58.603939 8.253903,60.745846 
	C8.567509,62.494411 8.881114,64.242981 9.166585,66.754822 
	C9.798319,68.425308 10.430052,70.095787 11.022200,72.348152 
	C11.577252,73.386711 12.132305,74.425278 12.795948,76.048988 
	C13.165973,76.722031 13.535997,77.395081 14.063550,78.694542 
	C15.008954,79.820625 15.954359,80.946709 17.024292,82.749672 
	C18.718945,84.579987 20.413597,86.410309 22.234541,88.869568 
	C31.046682,97.613083 41.602875,102.025414 54.910149,101.793106 
	C59.311970,100.997169 63.713787,100.201225 68.863403,99.273811 
	C71.976067,97.755997 75.088730,96.238190 78.863113,94.497444 
	C79.901276,93.615448 80.939438,92.733452 82.621849,91.870445 
	C83.737587,90.610977 84.853325,89.351501 86.587120,87.775963 
	C87.756134,85.874664 88.925148,83.973366 90.717682,81.775368 
	C91.886131,80.181862 93.054573,78.588348 94.667252,76.757492 
	C94.871162,76.301682 95.075073,75.845871 95.702530,74.964127 
	C96.104874,73.882416 96.507217,72.800705 97.286003,71.004326 
	C97.659630,69.716530 98.033264,68.428734 98.818024,66.482719 
	C98.996140,64.668259 99.174255,62.853798 99.672508,60.380157 
	C99.685440,58.917976 99.698364,57.455791 99.858414,55.314774 
	C99.755074,54.177097 99.651733,53.039417 99.624428,51.058060 
	C99.172264,48.895615 98.720093,46.733173 98.130615,43.860832 
	C97.362068,41.918144 96.593521,39.975456 95.917076,37.452347 
	C95.635292,36.960693 95.353500,36.469044 94.995567,35.271061 
	C92.390938,32.058235 89.786316,28.845415 87.079231,24.959307 
	C83.404549,21.974203 79.729866,18.989101 75.619179,15.414179 
	C73.448479,14.906843 71.277771,14.399508 68.901619,13.178042 
	C60.099430,8.889709 51.082088,9.144158 41.190678,11.953956 
	C38.216320,13.227415 35.241962,14.500874 31.673632,15.889460 
	C30.701172,16.560068 29.728712,17.230677 28.353752,17.912136 
	C28.068666,17.977911 27.870399,18.146055 27.137766,18.698149 
	C25.951694,19.739967 24.765621,20.781788 23.060871,21.974440 
	C22.729128,22.375912 22.397387,22.777384 21.484398,23.438118 
z"/>
<path fill="#92B601" opacity="1.000000" stroke="none" 
	d="
M68.115608,99.405281 
	C63.713787,100.201225 59.311970,100.997169 54.418480,101.417351 
	C49.485851,98.302032 45.092468,95.481224 40.590969,92.845024 
	C35.791798,90.034523 29.073483,89.045441 29.979252,81.102119 
	C29.995281,80.961533 29.851629,80.802734 29.869171,80.428444 
	C29.955858,80.204453 30.152897,79.766357 30.417461,79.686546 
	C31.210423,79.068916 31.738819,78.531097 32.560928,77.912735 
	C33.991951,76.997177 35.129253,76.162155 36.605099,75.264145 
	C38.587307,74.431747 40.230976,73.662338 42.146069,72.904205 
	C42.595535,72.883186 42.773571,72.850891 43.201111,72.850098 
	C43.618015,72.883308 43.785412,72.885010 43.964905,73.294235 
	C43.971535,74.786636 43.966068,75.871498 43.607597,77.003494 
	C41.181206,78.145851 39.107819,79.241066 35.642651,81.071465 
	C44.215405,85.455872 51.448097,88.975204 58.493626,92.836082 
	C61.883072,94.693474 64.919380,97.195290 68.115608,99.405281 
z"/>
<path fill="#BACD00" opacity="1.000000" stroke="none" 
	d="
M68.489502,99.339546 
	C64.919380,97.195290 61.883072,94.693474 58.493626,92.836082 
	C51.448097,88.975204 44.215405,85.455872 35.642651,81.071465 
	C39.107819,79.241066 41.181206,78.145851 43.953369,76.873146 
	C46.088497,76.455833 47.524841,76.216011 49.023552,76.320663 
	C56.996761,81.085388 64.960464,85.415222 72.782440,89.987511 
	C74.816071,91.176262 76.407082,93.122215 78.201393,94.720375 
	C75.088730,96.238190 71.976067,97.755997 68.489502,99.339546 
z"/>
<path fill="#FEA070" opacity="1.000000" stroke="none" 
	d="
M99.711296,55.993610 
	C99.698364,57.455791 99.685440,58.917976 99.023018,60.697884 
	C93.773872,61.245438 89.172913,61.684765 84.574860,61.656326 
	C77.554207,61.612904 70.534668,61.079102 63.516582,61.116207 
	C61.338737,61.127720 59.167118,62.316170 56.622063,62.967583 
	C55.510406,62.979774 54.769329,62.990181 54.017593,62.994812 
	C54.006931,62.989037 53.989712,62.971958 53.887825,62.750320 
	C53.582348,62.255959 53.315361,62.078697 52.590858,61.997925 
	C50.890129,61.993191 49.583515,61.987427 48.195385,61.605568 
	C47.803730,59.483997 47.493595,57.738514 47.640610,55.995270 
	C65.302277,55.996204 82.506783,55.994907 99.711296,55.993610 
z"/>
<path fill="#DCE000" opacity="1.000000" stroke="none" 
	d="
M78.532257,94.608910 
	C76.407082,93.122215 74.816071,91.176262 72.782440,89.987511 
	C64.960464,85.415222 56.996761,81.085388 49.309547,76.062943 
	C51.353760,75.298050 53.174339,75.135345 55.399200,74.996597 
	C57.755001,75.374695 59.745102,75.587311 61.651451,76.107101 
	C70.585747,78.543175 78.252304,82.667717 81.977600,91.851456 
	C80.939438,92.733452 79.901276,93.615448 78.532257,94.608910 
z"/>
<path fill="#FB926F" opacity="1.000000" stroke="none" 
	d="
M56.992649,62.965797 
	C59.167118,62.316170 61.338737,61.127720 63.516582,61.116207 
	C70.534668,61.079102 77.554207,61.612904 84.574860,61.656326 
	C89.172913,61.684765 93.773872,61.245438 98.862946,61.027473 
	C99.174255,62.853798 98.996140,64.668259 98.116257,66.773163 
	C86.605751,67.044739 75.797012,67.025879 64.684525,67.023598 
	C63.633759,67.330711 62.886757,67.621254 61.934380,67.677582 
	C60.823715,66.927856 59.918423,66.412354 58.965416,65.592239 
	C58.276012,64.513687 57.634331,63.739738 56.992649,62.965797 
z"/>
<path fill="#6E9F02" opacity="1.000000" stroke="none" 
	d="
M29.782486,80.652435 
	C29.851629,80.802734 29.995281,80.961533 29.979252,81.102119 
	C29.073483,89.045441 35.791798,90.034523 40.590969,92.845024 
	C45.092468,95.481224 49.485851,98.302032 53.998978,101.365433 
	C41.602875,102.025414 31.046682,97.613083 22.449387,88.350815 
	C23.866333,85.927315 25.068436,84.022575 26.597567,82.112549 
	C27.877228,81.622322 28.829857,81.137375 29.782486,80.652435 
z"/>
<path fill="#F88771" opacity="1.000000" stroke="none" 
	d="
M41.874641,72.892929 
	C40.230976,73.662338 38.587307,74.431747 36.239887,75.102859 
	C27.749449,71.117935 19.575207,70.160370 11.061785,71.766273 
	C10.430052,70.095787 9.798319,68.425308 9.636528,66.375656 
	C20.650650,65.993225 31.194828,65.989960 41.813519,66.415344 
	C41.883568,68.860298 41.879105,70.876617 41.874641,72.892929 
z"/>
<path fill="#FCBE81" opacity="1.000000" stroke="none" 
	d="
M98.267929,44.570728 
	C98.720093,46.733173 99.172264,48.895615 99.142349,51.500931 
	C97.772186,51.961971 96.884102,51.980133 95.809341,51.754654 
	C94.749870,51.673458 93.877068,51.835903 92.669518,51.998512 
	C91.888420,51.998573 91.442078,51.998470 90.809158,51.754669 
	C89.749809,51.673470 88.877037,51.835964 87.586899,51.998634 
	C85.778259,51.998699 84.387001,51.998585 82.809143,51.754787 
	C81.749786,51.673519 80.877029,51.835934 79.669518,51.998512 
	C78.888420,51.998569 78.442078,51.998466 77.809158,51.754669 
	C76.749809,51.673473 75.877037,51.835968 74.586899,51.998642 
	C72.778259,51.998699 71.387001,51.998585 69.809143,51.754791 
	C68.749786,51.673523 67.877029,51.835938 66.669556,51.998508 
	C65.888565,51.998547 65.442276,51.998432 64.848267,51.778893 
	C64.134995,51.705772 63.569450,51.852074 62.671974,51.997791 
	C61.897484,51.995193 61.454914,51.993179 61.007584,51.641022 
	C60.347755,50.529839 59.692692,49.768803 59.012817,48.670952 
	C59.045906,47.889706 59.103802,47.445278 59.620216,47.001198 
	C67.075020,47.001186 74.071396,46.980747 81.067535,47.012527 
	C83.202682,47.022224 85.242714,47.054161 84.945122,43.978035 
	C84.961182,43.960632 84.996010,43.928547 85.350525,44.011066 
	C89.182961,48.158741 90.203728,48.144753 93.044495,43.682060 
	C93.742622,43.592594 94.368958,43.879616 95.026611,44.022472 
	C96.096283,44.254826 97.186424,44.392876 98.267929,44.570728 
z"/>
<path fill="#FDAD75" opacity="1.000000" stroke="none" 
	d="
M95.996017,51.998299 
	C96.884102,51.980133 97.772186,51.961971 99.104340,51.922775 
	C99.651733,53.039417 99.755074,54.177097 99.784851,55.654190 
	C82.506783,55.994907 65.302277,55.996204 47.504715,55.622017 
	C46.727280,54.479015 46.542896,53.711502 46.869240,52.964333 
	C51.924095,52.653507 56.468224,52.322334 61.012348,51.991165 
	C61.454914,51.993179 61.897484,51.995193 62.819447,52.217800 
	C63.864559,52.291702 64.430275,52.145012 64.995995,51.998318 
	C65.442276,51.998432 65.888565,51.998547 66.855835,52.242805 
	C68.249794,52.324120 69.122765,52.161293 69.995743,51.998466 
	C71.387001,51.998585 72.778259,51.998699 74.773193,52.242912 
	C76.249825,52.324127 77.122780,52.161247 77.995735,51.998367 
	C78.442078,51.998466 78.888420,51.998569 79.855789,52.242805 
	C81.249794,52.324120 82.122765,52.161293 82.995743,51.998466 
	C84.387001,51.998585 85.778259,51.998699 87.773193,52.242908 
	C89.249825,52.324123 90.122780,52.161243 90.995735,51.998363 
	C91.442078,51.998470 91.888420,51.998573 92.855804,52.242821 
	C94.249908,52.324078 95.122963,52.161186 95.996017,51.998299 
z"/>
<path fill="#FC946F" opacity="1.000000" stroke="none" 
	d="
M41.739006,65.986702 
	C31.194828,65.989960 20.650650,65.993225 9.650595,65.994019 
	C8.881114,64.242981 8.567509,62.494411 8.696299,60.448578 
	C16.157408,60.410889 23.176121,60.670467 30.436562,61.118736 
	C31.809267,60.538773 32.940247,59.770123 34.451855,59.053204 
	C37.098316,59.397755 39.364147,59.690575 41.723484,60.403938 
	C41.790997,62.545223 41.765003,64.265961 41.739006,65.986702 
z"/>
<path fill="#F98574" opacity="1.000000" stroke="none" 
	d="
M64.988281,67.007019 
	C75.797012,67.025879 86.605751,67.044739 97.910690,67.102264 
	C98.033264,68.428734 97.659630,69.716530 96.649208,71.255463 
	C87.587677,70.249489 79.551682,71.455391 71.594765,75.245567 
	C70.063812,74.546127 68.871368,73.908173 67.858444,73.019691 
	C68.020416,72.149361 68.002853,71.529549 67.880478,70.760887 
	C67.535797,70.766663 67.295944,70.921295 67.050087,71.076889 
	C67.044075,71.077843 67.072052,71.102203 66.665329,71.070999 
	C65.171722,71.050316 64.084839,71.060844 62.973900,71.070084 
	C62.949841,71.068794 62.922421,71.029167 63.085144,70.739456 
	C63.828007,69.302170 64.408142,68.154594 64.988281,67.007019 
z"/>
<path fill="#B1C507" opacity="1.000000" stroke="none" 
	d="
M67.678917,73.270218 
	C68.871368,73.908173 70.063812,74.546127 71.790924,75.473862 
	C73.525581,76.491089 74.725586,77.218544 76.062241,78.190750 
	C76.684929,78.688263 77.170982,78.941040 77.814140,79.476303 
	C79.260864,80.868126 80.550476,81.977470 81.982483,83.381927 
	C83.406281,85.148705 84.687668,86.620369 85.969055,88.092033 
	C84.853325,89.351501 83.737587,90.610977 82.299721,91.860947 
	C78.252304,82.667717 70.585747,78.543175 61.651451,76.107101 
	C59.745102,75.587311 57.755001,75.374695 55.397507,74.646606 
	C54.658993,73.168770 54.326462,72.064896 54.156361,70.690506 
	C55.570572,69.677383 56.822350,68.934776 58.399521,68.325012 
	C59.899483,69.265602 61.074059,70.073357 62.331474,70.975266 
	C62.414318,71.069412 62.673168,71.114716 62.673168,71.114716 
	C62.673168,71.114716 62.922421,71.029167 62.922421,71.029167 
	C62.922421,71.029167 62.949841,71.068794 63.069405,71.366669 
	C64.108971,72.065742 65.028969,72.466949 66.228806,72.973938 
	C66.898735,73.143211 67.288826,73.206718 67.678917,73.270218 
z"/>
<path fill="#FBD490" opacity="1.000000" stroke="none" 
	d="
M98.199272,44.215782 
	C97.186424,44.392876 96.096283,44.254826 95.026611,44.022472 
	C94.368958,43.879616 93.742622,43.592594 92.661423,43.683495 
	C90.082565,43.212692 87.944511,42.428699 85.528458,41.542763 
	C85.379303,42.211094 85.187653,43.069820 84.996010,43.928547 
	C84.996010,43.928547 84.961182,43.960632 84.565849,43.976898 
	C82.358093,43.422325 80.519554,42.295456 78.737869,42.379139 
	C71.875412,42.701458 65.031151,43.410995 58.113800,43.952400 
	C58.047501,43.928635 58.060066,43.788887 58.046745,43.453445 
	C58.662697,41.834385 59.291965,40.550774 60.141403,39.160854 
	C60.361568,39.054550 60.839813,38.952656 61.235664,39.009705 
	C66.747704,39.652290 71.855103,40.395725 76.987991,40.681427 
	C77.939796,40.734406 78.994293,38.942455 80.366745,38.005882 
	C83.142487,37.761776 86.078857,42.380508 88.342407,37.298065 
	C91.092026,37.589230 93.458504,37.810997 95.824966,38.032768 
	C96.593521,39.975456 97.362068,41.918144 98.199272,44.215782 
z"/>
<path fill="#FAB603" opacity="1.000000" stroke="none" 
	d="
M95.871025,37.742558 
	C93.458504,37.810997 91.092026,37.589230 87.994370,37.187248 
	C84.877213,35.658108 82.491249,34.309177 80.009796,32.628933 
	C78.391335,30.165443 76.868362,28.033266 75.244049,25.499514 
	C75.042564,23.719339 74.942413,22.340744 74.903076,20.592329 
	C74.924049,19.476215 74.884224,18.729919 74.958923,17.713961 
	C75.400696,16.964197 75.727936,16.484098 76.055183,16.004000 
	C79.729866,18.989101 83.404549,21.974203 86.918900,25.607956 
	C84.902939,27.021563 83.047302,27.786516 80.865791,28.685804 
	C84.593727,34.139683 89.438957,35.840446 95.071709,35.977394 
	C95.353500,36.469044 95.635292,36.960693 95.871025,37.742558 
z"/>
<path fill="#FBA270" opacity="1.000000" stroke="none" 
	d="
M30.194834,60.930046 
	C23.176121,60.670467 16.157408,60.410889 8.750542,60.074070 
	C8.268756,58.603939 8.175121,57.211048 8.546659,55.473133 
	C15.374459,55.405861 21.737089,55.683609 28.402430,56.133011 
	C29.201704,57.846458 29.698269,59.388252 30.194834,60.930046 
z"/>
<path fill="#A7E4D7" opacity="1.000000" stroke="none" 
	d="
M75.837181,15.709089 
	C75.727936,16.484098 75.400696,16.964197 74.500839,17.719263 
	C58.870899,17.963247 43.813576,17.932266 28.756254,17.901285 
	C29.728712,17.230677 30.701172,16.560068 32.491802,15.894662 
	C43.264782,15.933477 53.220879,16.055517 63.173088,15.910526 
	C64.764992,15.887335 66.339462,14.668303 68.219940,13.992735 
	C68.714279,13.952968 68.910675,13.922570 69.107071,13.892172 
	C71.277771,14.399508 73.448479,14.906843 75.837181,15.709089 
z"/>
<path fill="#F6D997" opacity="1.000000" stroke="none" 
	d="
M9.939790,43.878471 
	C10.739594,41.385948 11.539397,38.893421 13.068533,36.192329 
	C17.570904,36.325275 21.343939,36.666798 24.967777,37.318428 
	C23.033987,39.755680 19.930914,41.332390 21.312321,44.972000 
	C17.226181,44.611362 13.582986,44.244919 9.939790,43.878471 
z"/>
<path fill="#0DC8D9" opacity="1.000000" stroke="none" 
	d="
M11.041992,72.057213 
	C19.575207,70.160370 27.749449,71.117935 35.901348,75.165848 
	C35.129253,76.162155 33.991951,76.997177 32.259212,77.667175 
	C25.338306,76.822723 19.012831,76.143280 12.687357,75.463837 
	C12.132305,74.425278 11.577252,73.386711 11.041992,72.057213 
z"/>
<path fill="#B4EBD6" opacity="1.000000" stroke="none" 
	d="
M28.555004,17.906712 
	C43.813576,17.932266 58.870899,17.963247 74.386307,17.988926 
	C74.884224,18.729919 74.924049,19.476215 74.523117,20.547997 
	C71.053932,20.584356 68.025490,20.295229 64.528587,20.003914 
	C53.751888,20.000792 43.442585,20.075041 33.136444,19.927801 
	C31.337116,19.902094 29.551111,18.944023 27.758951,18.416573 
	C27.870399,18.146055 28.068666,17.977911 28.555004,17.906712 
z"/>
<path fill="#0EC9D9" opacity="1.000000" stroke="none" 
	d="
M75.925598,77.945999 
	C74.725586,77.218544 73.525581,76.491089 72.129425,75.535339 
	C79.551682,71.455391 87.587677,70.249489 96.460991,71.612801 
	C96.507217,72.800705 96.104874,73.882416 95.018539,75.071381 
	C88.198235,76.101089 82.061913,77.023544 75.925598,77.945999 
z"/>
<path fill="#F6BE80" opacity="1.000000" stroke="none" 
	d="
M9.651901,44.170307 
	C13.582986,44.244919 17.226181,44.611362 21.413141,45.261307 
	C22.262606,45.793163 22.568306,46.041512 22.862249,46.485649 
	C22.850491,46.681438 22.939259,47.063545 22.759493,47.351898 
	C22.427128,48.740814 22.274527,49.841381 21.692524,50.969234 
	C16.966562,51.290440 12.670003,51.584354 8.373444,51.878273 
	C8.703633,49.406231 9.033822,46.934185 9.651901,44.170307 
z"/>
<path fill="#83D4DF" opacity="1.000000" stroke="none" 
	d="
M69.004349,13.535107 
	C68.910675,13.922570 68.714279,13.952968 67.978882,13.711805 
	C60.384323,13.621046 53.328117,13.922062 46.273781,13.883280 
	C44.827671,13.875330 43.388557,12.595161 41.946217,11.901418 
	C51.082088,9.144158 60.099430,8.889709 69.004349,13.535107 
z"/>
<path fill="#C2EFD0" opacity="1.000000" stroke="none" 
	d="
M27.448359,18.557362 
	C29.551111,18.944023 31.337116,19.902094 33.136444,19.927801 
	C43.442585,20.075041 53.751888,20.000792 64.433334,20.396309 
	C61.018311,21.194445 57.209476,21.468195 53.451820,22.064480 
	C51.916874,22.308052 50.492760,23.250084 48.682709,23.868248 
	C47.902733,23.823336 47.458279,23.784529 46.885315,23.375221 
	C45.240368,22.670265 43.730564,22.085585 42.206326,22.045179 
	C35.999805,21.880650 29.788862,21.882856 23.579550,21.823608 
	C24.765621,20.781788 25.951694,19.739967 27.448359,18.557362 
z"/>
<path fill="#F4F2AB" opacity="1.000000" stroke="none" 
	d="
M25.116976,37.008320 
	C21.343939,36.666798 17.570904,36.325275 13.338204,35.969276 
	C14.446162,33.276875 16.013783,30.598961 18.325779,27.878933 
	C21.404982,28.634180 23.739809,29.431538 25.860554,30.468967 
	C24.756268,31.438614 23.866062,32.168190 22.809708,33.033936 
	C26.368042,35.128368 26.368042,35.128368 25.116976,37.008320 
z"/>
<path fill="#FEAE76" opacity="1.000000" stroke="none" 
	d="
M8.269739,52.177086 
	C12.670003,51.584354 16.966562,51.290440 21.957264,50.876877 
	C23.389109,50.191307 24.126810,49.625381 25.016537,49.371819 
	C26.170082,51.450661 27.171600,53.217144 28.112728,55.224903 
	C28.052340,55.466179 28.099720,55.961357 28.099720,55.961357 
	C21.737089,55.683609 15.374459,55.405861 8.623561,55.059456 
	C8.212207,54.152504 8.189121,53.314205 8.269739,52.177086 
z"/>
<path fill="#F8A500" opacity="1.000000" stroke="none" 
	d="
M95.033638,35.624229 
	C89.438957,35.840446 84.593727,34.139683 80.865791,28.685804 
	C83.047302,27.786516 84.902939,27.021563 86.970139,25.944599 
	C89.786316,28.845415 92.390938,32.058235 95.033638,35.624229 
z"/>
<path fill="#9AE4E3" opacity="1.000000" stroke="none" 
	d="
M41.568447,11.927687 
	C43.388557,12.595161 44.827671,13.875330 46.273781,13.883280 
	C53.328117,13.922062 60.384323,13.621046 67.680931,13.721174 
	C66.339462,14.668303 64.764992,15.887335 63.173088,15.910526 
	C53.220879,16.055517 43.264782,15.933477 32.788788,15.837099 
	C35.241962,14.500874 38.216320,13.227415 41.568447,11.927687 
z"/>
<path fill="#01A0AE" opacity="1.000000" stroke="none" 
	d="
M29.869171,80.428444 
	C28.829857,81.137375 27.877228,81.622322 26.124352,82.060333 
	C22.515993,82.033195 19.707878,82.052994 16.899765,82.072784 
	C15.954359,80.946709 15.008954,79.820625 14.282930,78.091003 
	C19.719172,78.247101 24.936033,79.006729 30.152897,79.766357 
	C30.152897,79.766357 29.955858,80.204453 29.869171,80.428444 
z"/>
<path fill="#01A0B0" opacity="1.000000" stroke="none" 
	d="
M81.840080,83.086807 
	C80.550476,81.977470 79.260864,80.868126 78.223206,79.372482 
	C83.724442,78.322403 88.973724,77.658623 94.223022,76.994835 
	C93.054573,78.588348 91.886131,80.181862 89.974358,81.904358 
	C86.767380,82.384499 84.303734,82.735657 81.840080,83.086807 
z"/>
<path fill="#E8F9BC" opacity="1.000000" stroke="none" 
	d="
M26.074636,30.228895 
	C23.739809,29.431538 21.404982,28.634180 18.597588,27.719904 
	C18.423424,27.133848 18.721823,26.664713 19.764400,26.075945 
	C27.409494,25.993696 34.310410,26.031076 41.072681,26.343819 
	C40.288467,27.408407 39.642902,28.197632 38.631004,29.059933 
	C34.201324,29.498304 30.137981,29.863600 26.074636,30.228895 
z"/>
<path fill="#CDF0C5" opacity="1.000000" stroke="none" 
	d="
M23.320210,21.899025 
	C29.788862,21.882856 35.999805,21.880650 42.206326,22.045179 
	C43.730564,22.085585 45.240368,22.670265 46.599403,23.482796 
	C45.921768,24.242683 45.401543,24.524496 44.522976,24.840612 
	C43.450024,24.935659 42.735409,24.996407 41.726864,24.757120 
	C39.492779,24.304422 37.554142,24.127953 35.612160,24.003880 
	C31.097511,23.715439 26.581251,23.452269 22.065643,23.178856 
	C22.397387,22.777384 22.729128,22.375912 23.320210,21.899025 
z"/>
<path fill="#D7F2BF" opacity="1.000000" stroke="none" 
	d="
M21.775021,23.308487 
	C26.581251,23.452269 31.097511,23.715439 35.612160,24.003880 
	C37.554142,24.127953 39.492779,24.304422 41.657520,24.976448 
	C41.771435,25.818970 41.547844,26.009853 41.211327,26.068457 
	C34.310410,26.031076 27.409494,25.993696 20.002636,25.921890 
	C20.159264,25.071016 20.821831,24.254568 21.775021,23.308487 
z"/>
<path fill="#026475" opacity="1.000000" stroke="none" 
	d="
M30.417461,79.686546 
	C24.936033,79.006729 19.719172,78.247101 14.204166,77.777802 
	C13.535997,77.395081 13.165973,76.722031 12.741652,75.756409 
	C19.012831,76.143280 25.338306,76.822723 31.965498,77.747726 
	C31.738819,78.531097 31.210423,79.068916 30.417461,79.686546 
z"/>
<path fill="#026475" opacity="1.000000" stroke="none" 
	d="
M94.445129,76.876160 
	C88.973724,77.658623 83.724442,78.322403 78.066086,79.089996 
	C77.170982,78.941040 76.684929,78.688263 76.062241,78.190742 
	C82.061913,77.023544 88.198235,76.101089 94.806763,75.284355 
	C95.075073,75.845871 94.871162,76.301682 94.445129,76.876160 
z"/>
<path fill="#03737B" opacity="1.000000" stroke="none" 
	d="
M16.962029,82.411224 
	C19.707878,82.052994 22.515993,82.033195 25.797321,82.065620 
	C25.068436,84.022575 23.866333,85.927315 22.386242,88.036339 
	C20.413597,86.410309 18.718945,84.579987 16.962029,82.411224 
z"/>
<path fill="#05747A" opacity="1.000000" stroke="none" 
	d="
M81.982483,83.381927 
	C84.303734,82.735657 86.767380,82.384499 89.662598,82.052704 
	C88.925148,83.973366 87.756134,85.874664 86.278091,87.933998 
	C84.687668,86.620369 83.406281,85.148705 81.982483,83.381927 
z"/>
<path fill="#894A09" opacity="1.000000" stroke="none" 
	d="
M41.813522,66.415344 
	C41.765003,64.265961 41.790997,62.545223 41.783173,60.025345 
	C41.455784,57.175423 41.162209,55.124638 41.155304,52.853638 
	C42.693897,51.763172 43.945816,50.892925 45.362701,50.237183 
	C45.804615,51.282452 46.081562,52.113216 46.358509,52.943985 
	C46.542896,53.711502 46.727280,54.479015 47.047562,55.619781 
	C47.493595,57.738514 47.803730,59.483997 48.109253,61.931259 
	C48.095959,63.080643 48.087284,63.528244 47.792351,63.749134 
	C46.696648,61.644073 45.887199,59.765724 45.077751,57.887379 
	C44.400963,58.005550 43.724171,58.123726 43.047379,58.241898 
	C43.047379,61.169643 43.047379,64.097389 43.039501,67.442169 
	C43.004951,69.512344 42.978275,71.165474 42.951603,72.818604 
	C42.773571,72.850891 42.595535,72.883186 42.146069,72.904205 
	C41.879105,70.876617 41.883568,68.860298 41.813522,66.415344 
z"/>
<path fill="#A8BF01" opacity="1.000000" stroke="none" 
	d="
M53.993927,70.961029 
	C54.326462,72.064896 54.658993,73.168770 54.993225,74.622643 
	C53.174339,75.135345 51.353760,75.298050 49.247181,75.718475 
	C47.524841,76.216011 46.088497,76.455833 44.306377,76.826019 
	C43.966068,75.871498 43.971535,74.786636 44.216400,73.058212 
	C46.250675,71.653404 48.045555,70.892143 50.086056,70.407059 
	C51.552429,70.775833 52.773178,70.868431 53.993927,70.961029 
z"/>
<path fill="#AF5F00" opacity="1.000000" stroke="none" 
	d="
M49.840431,70.130875 
	C48.045555,70.892143 46.250675,71.653404 44.204300,72.650681 
	C43.785412,72.885010 43.618015,72.883308 43.201111,72.850098 
	C42.978275,71.165474 43.004951,69.512344 43.412689,67.385239 
	C45.533005,66.612938 47.272251,66.314606 49.083282,66.245903 
	C49.155064,66.475533 49.289368,66.937592 49.255764,67.173973 
	C49.327370,67.745476 49.550205,67.956345 49.928772,68.390381 
	C49.924732,69.202164 49.882584,69.666519 49.840431,70.130875 
z"/>
<path fill="#FB926F" opacity="1.000000" stroke="none" 
	d="
M49.890659,68.042961 
	C49.550205,67.956345 49.327370,67.745476 49.420162,67.026924 
	C49.534142,66.125526 49.450119,65.607559 49.201408,64.848900 
	C48.717350,64.397423 48.397980,64.186638 48.078606,63.975849 
	C48.087284,63.528244 48.095959,63.080643 48.190773,62.307350 
	C49.583515,61.987427 50.890129,61.993191 52.700012,62.215248 
	C53.398323,62.709328 53.660465,62.889469 53.989712,62.971958 
	C53.989712,62.971958 54.006931,62.989037 54.037605,63.323071 
	C54.737320,64.692505 55.406357,65.727905 56.455536,67.351601 
	C54.026733,67.607384 51.958698,67.825172 49.890659,68.042961 
z"/>
<path fill="#F78268" opacity="1.000000" stroke="none" 
	d="
M49.928772,68.390381 
	C51.958698,67.825172 54.026733,67.607384 56.455536,67.351601 
	C55.406357,65.727905 54.737320,64.692505 54.048271,63.328846 
	C54.769329,62.990181 55.510406,62.979774 56.622063,62.967583 
	C57.634331,63.739738 58.276012,64.513687 58.695347,65.790565 
	C58.340042,66.926392 58.207085,67.559288 58.074127,68.192177 
	C56.822350,68.934776 55.570572,69.677383 54.156357,70.690506 
	C52.773178,70.868431 51.552429,70.775833 50.086056,70.407059 
	C49.882584,69.666519 49.924732,69.202164 49.928772,68.390381 
z"/>
<path fill="#F78268" opacity="1.000000" stroke="none" 
	d="
M53.887825,62.750320 
	C53.660465,62.889469 53.398323,62.709328 53.094131,62.214218 
	C53.315361,62.078697 53.582348,62.255959 53.887825,62.750320 
z"/>
<path fill="#F22443" opacity="1.000000" stroke="none" 
	d="
M58.399517,68.325012 
	C58.207085,67.559288 58.340042,66.926392 58.743065,66.095169 
	C59.918423,66.412354 60.823715,66.927856 61.906631,68.170197 
	C62.139053,69.558395 62.193844,70.219757 62.248634,70.881119 
	C61.074059,70.073357 59.899483,69.265602 58.399517,68.325012 
z"/>
<path fill="#F57668" opacity="1.000000" stroke="none" 
	d="
M62.331474,70.975266 
	C62.193844,70.219757 62.139053,69.558395 62.112007,68.404419 
	C62.886757,67.621254 63.633759,67.330711 64.684525,67.023598 
	C64.408142,68.154594 63.828007,69.302170 63.085144,70.739456 
	C62.922421,71.029167 62.673168,71.114716 62.673168,71.114716 
	C62.673168,71.114716 62.414318,71.069412 62.331474,70.975266 
z"/>
<path fill="#FCCB8C" opacity="1.000000" stroke="none" 
	d="
M58.180099,43.976166 
	C65.031151,43.410995 71.875412,42.701458 78.737869,42.379139 
	C80.519554,42.295456 82.358093,43.422325 84.549789,43.994297 
	C85.242714,47.054161 83.202682,47.022224 81.067535,47.012527 
	C74.071396,46.980747 67.075020,47.001186 59.483284,46.699959 
	C58.651920,45.590969 58.416012,44.783569 58.180099,43.976166 
z"/>
<path fill="#F5B679" opacity="1.000000" stroke="none" 
	d="
M46.869240,52.964333 
	C46.081562,52.113216 45.804615,51.282452 45.346653,49.810318 
	C45.102875,47.774845 45.040112,46.380741 45.308704,44.938782 
	C46.086651,44.901669 46.533249,44.912403 47.253502,45.140770 
	C51.210297,47.059605 54.078388,51.331535 59.037628,49.007763 
	C59.692692,49.768803 60.347755,50.529839 61.007584,51.641022 
	C56.468224,52.322334 51.924095,52.653507 46.869240,52.964333 
z"/>
<path fill="#6CD436" opacity="1.000000" stroke="none" 
	d="
M59.012817,48.670952 
	C54.078388,51.331535 51.210297,47.059605 47.273380,44.781357 
	C47.536674,43.520096 48.053757,42.835884 48.570839,42.151672 
	C51.078697,44.467342 53.498310,42.218082 56.136246,42.225357 
	C56.896778,42.890854 57.478424,43.339870 58.060066,43.788887 
	C58.060066,43.788887 58.047501,43.928635 58.113800,43.952400 
	C58.416012,44.783569 58.651920,45.590969 59.024765,46.699608 
	C59.103802,47.445278 59.045906,47.889706 59.012817,48.670952 
z"/>
<path fill="#FCCB8C" opacity="1.000000" stroke="none" 
	d="
M85.350525,44.011066 
	C85.187653,43.069820 85.379303,42.211094 85.528458,41.542763 
	C87.944511,42.428699 90.082565,43.212692 92.603691,43.995251 
	C90.203728,48.144753 89.182961,48.158741 85.350525,44.011066 
z"/>
<path fill="#F5B679" opacity="1.000000" stroke="none" 
	d="
M95.809341,51.754654 
	C95.122963,52.161186 94.249908,52.324078 93.190567,52.242661 
	C93.877068,51.835903 94.749870,51.673458 95.809341,51.754654 
z"/>
<path fill="#F5B679" opacity="1.000000" stroke="none" 
	d="
M90.809158,51.754669 
	C90.122780,52.161243 89.249825,52.324123 88.190567,52.242729 
	C88.877037,51.835964 89.749809,51.673470 90.809158,51.754669 
z"/>
<path fill="#F5B679" opacity="1.000000" stroke="none" 
	d="
M82.809143,51.754784 
	C82.122765,52.161293 81.249794,52.324120 80.190544,52.242645 
	C80.877029,51.835934 81.749786,51.673519 82.809143,51.754784 
z"/>
<path fill="#F5B679" opacity="1.000000" stroke="none" 
	d="
M77.809158,51.754673 
	C77.122780,52.161247 76.249825,52.324127 75.190567,52.242737 
	C75.877037,51.835968 76.749809,51.673473 77.809158,51.754673 
z"/>
<path fill="#F5B679" opacity="1.000000" stroke="none" 
	d="
M69.809143,51.754787 
	C69.122765,52.161293 68.249794,52.324120 67.190544,52.242645 
	C67.877029,51.835938 68.749786,51.673523 69.809143,51.754787 
z"/>
<path fill="#F5B679" opacity="1.000000" stroke="none" 
	d="
M64.848267,51.778893 
	C64.430275,52.145012 63.864559,52.291702 63.151375,52.218384 
	C63.569450,51.852074 64.134995,51.705772 64.848267,51.778893 
z"/>
<path fill="#FAA771" opacity="1.000000" stroke="none" 
	d="
M40.868629,53.073853 
	C41.162209,55.124638 41.455784,57.175423 41.689667,59.604801 
	C39.364147,59.690575 37.098316,59.397755 34.531822,58.728828 
	C34.564091,57.308582 34.897022,56.264442 35.215347,55.180275 
	C35.200745,55.140251 35.124516,55.098122 35.453697,55.032089 
	C35.976387,54.331623 36.169895,53.697186 36.584190,52.827568 
	C37.227615,51.396942 37.650257,50.201500 38.328533,48.962124 
	C38.744675,48.853851 38.905182,48.789513 39.375740,48.923744 
	C40.080070,50.439495 40.474350,51.756672 40.868629,53.073853 
z"/>
<path fill="#4E9D15" opacity="1.000000" stroke="none" 
	d="
M35.229950,55.220299 
	C34.897022,56.264442 34.564091,57.308582 34.151192,58.677101 
	C32.940247,59.770123 31.809267,60.538773 30.436562,61.118736 
	C29.698269,59.388252 29.201704,57.846458 28.402430,56.133011 
	C28.099720,55.961357 28.052340,55.466179 28.438984,55.188835 
	C29.867861,54.601337 30.910093,54.291191 32.191582,54.252285 
	C33.363876,54.755783 34.296913,54.988041 35.229950,55.220299 
z"/>
<path fill="#F57668" opacity="1.000000" stroke="none" 
	d="
M65.948959,72.868156 
	C65.028969,72.466949 64.108971,72.065742 63.093468,71.367958 
	C64.084839,71.060844 65.171722,71.050316 66.566666,71.315979 
	C66.566147,72.017487 66.257553,72.442818 65.948959,72.868156 
z"/>
<path fill="#A72824" opacity="1.000000" stroke="none" 
	d="
M66.228806,72.973938 
	C66.257553,72.442818 66.566147,72.017487 66.973396,71.347183 
	C67.072052,71.102203 67.044075,71.077843 67.286026,71.056183 
	C67.527985,71.034515 67.985298,70.909744 67.985298,70.909744 
	C68.002853,71.529549 68.020416,72.149361 67.858444,73.019691 
	C67.288826,73.206718 66.898735,73.143211 66.228806,72.973938 
z"/>
<path fill="#F57668" opacity="1.000000" stroke="none" 
	d="
M67.880478,70.760887 
	C67.985298,70.909744 67.527985,71.034515 67.292038,71.055222 
	C67.295944,70.921295 67.535797,70.766663 67.880478,70.760887 
z"/>
<path fill="#F7E99F" opacity="1.000000" stroke="none" 
	d="
M80.105286,32.960247 
	C82.491249,34.309177 84.877213,35.658108 87.611214,37.117851 
	C86.078857,42.380508 83.142487,37.761776 80.086372,37.866299 
	C78.444618,37.165722 77.396317,36.055935 76.461334,36.144360 
	C71.658958,36.598549 66.885712,37.360794 62.172745,37.726761 
	C61.995224,36.950485 61.747250,36.462879 61.410664,35.639862 
	C60.896603,34.846031 60.471149,34.387619 60.026993,33.960121 
	C60.008289,33.991032 60.078213,33.972805 60.067348,33.730267 
	C60.056484,33.487728 59.956791,33.012852 60.400578,33.008568 
	C63.132687,32.864487 65.774780,33.403221 67.631310,32.435261 
	C70.898804,30.731640 73.608124,27.967045 76.422173,32.970226 
	C76.715797,33.492275 78.833763,32.988220 80.105286,32.960247 
z"/>
<path fill="#FBDF9C" opacity="1.000000" stroke="none" 
	d="
M62.102295,38.015438 
	C66.885712,37.360794 71.658958,36.598549 76.461334,36.144360 
	C77.396317,36.055935 78.444618,37.165722 79.721024,37.862415 
	C78.994293,38.942455 77.939796,40.734406 76.987991,40.681427 
	C71.855103,40.395725 66.747704,39.652290 61.370544,38.763149 
	C61.440479,38.311508 61.771389,38.163471 62.102295,38.015438 
z"/>
<path fill="#6ED638" opacity="1.000000" stroke="none" 
	d="
M62.172745,37.726761 
	C61.771389,38.163471 61.440479,38.311508 60.974693,38.706100 
	C60.839813,38.952656 60.361568,39.054550 59.776218,39.064697 
	C57.502216,38.736748 55.813568,38.398655 53.803905,38.021881 
	C52.698204,37.656048 51.913513,37.328892 51.007881,36.739460 
	C50.563026,35.999973 50.239105,35.522762 49.945587,34.720165 
	C50.024406,33.963120 50.072823,33.531460 50.443947,33.114693 
	C51.196636,33.154213 51.626621,33.178848 52.258224,33.457760 
	C54.074348,34.141579 56.022591,36.792858 57.353531,33.053658 
	C58.159336,33.039623 58.618790,33.000896 59.045197,32.975433 
	C59.012150,32.988701 59.026272,32.918888 59.086128,33.189606 
	C59.456730,33.631149 59.767471,33.801979 60.078213,33.972805 
	C60.078213,33.972805 60.008289,33.991032 60.011513,34.316216 
	C60.509583,35.086025 61.004429,35.530651 61.499271,35.975277 
	C61.747250,36.462879 61.995224,36.950485 62.172745,37.726761 
z"/>
<path fill="#F2D490" opacity="1.000000" stroke="none" 
	d="
M54.124916,38.060562 
	C55.813568,38.398655 57.502216,38.736748 59.556053,39.170998 
	C59.291965,40.550774 58.662697,41.834385 58.046745,43.453445 
	C57.478424,43.339870 56.896778,42.890854 56.073818,41.904800 
	C55.263309,40.265358 54.694115,39.162960 54.124916,38.060562 
z"/>
<path fill="#EDF6B2" opacity="1.000000" stroke="none" 
	d="
M80.009796,32.628933 
	C78.833763,32.988220 76.715797,33.492275 76.422173,32.970226 
	C73.608124,27.967045 70.898804,30.731640 67.631310,32.435261 
	C65.774780,33.403221 63.132687,32.864487 60.168709,32.977749 
	C59.493053,32.951218 59.026272,32.918888 59.026272,32.918888 
	C59.026272,32.918888 59.012150,32.988701 58.921867,32.668243 
	C57.899624,31.853947 56.967667,31.360109 56.036438,30.901764 
	C56.037163,30.937254 56.101093,30.906063 55.928207,30.568188 
	C53.289482,29.582598 50.823639,28.934883 48.202099,28.246271 
	C48.578842,27.185360 48.961365,26.108175 49.787964,25.025948 
	C58.603161,25.314302 66.974274,25.607695 75.345390,25.901089 
	C76.868362,28.033266 78.391335,30.165443 80.009796,32.628933 
z"/>
<path fill="#CDF0C5" opacity="1.000000" stroke="none" 
	d="
M75.244049,25.499512 
	C66.974274,25.607695 58.603161,25.314302 49.704819,24.737125 
	C49.124474,24.260349 49.071350,24.067352 49.018227,23.874355 
	C50.492760,23.250084 51.916874,22.308052 53.451820,22.064480 
	C57.209476,21.468195 61.018311,21.194445 64.901802,20.398499 
	C68.025490,20.295229 71.053932,20.584356 74.462318,20.917816 
	C74.942413,22.340744 75.042564,23.719339 75.244049,25.499512 
z"/>
<path fill="#489D16" opacity="1.000000" stroke="none" 
	d="
M25.860554,30.468967 
	C30.137981,29.863600 34.201324,29.498304 38.638611,29.339878 
	C39.024803,29.733042 39.037048,29.919333 39.053288,30.304625 
	C39.057281,30.503624 39.042850,30.901442 39.028198,31.244305 
	C39.013283,32.043137 39.013016,32.499104 38.651772,33.032021 
	C35.483948,33.709408 32.677105,34.309845 28.783455,35.142769 
	C28.813437,35.812660 28.907570,37.916061 28.999413,40.009041 
	C28.997118,39.998615 29.018120,40.001759 28.685242,39.998962 
	C27.908953,39.997639 27.465546,39.999107 26.654991,40.043297 
	C25.149899,42.153969 24.011953,44.221916 22.874008,46.289864 
	C22.568306,46.041512 22.262606,45.793163 21.856083,45.255501 
	C19.930914,41.332390 23.033987,39.755680 24.967777,37.318428 
	C26.368042,35.128368 26.368042,35.128368 22.809708,33.033936 
	C23.866062,32.168190 24.756268,31.438614 25.860554,30.468967 
z"/>
<path fill="#4DAE1B" opacity="1.000000" stroke="none" 
	d="
M22.862247,46.485649 
	C24.011953,44.221916 25.149899,42.153969 26.668236,40.306015 
	C27.705126,40.351261 28.361622,40.176510 29.018120,40.001759 
	C29.018120,40.001759 28.997118,39.998615 29.262367,40.230339 
	C30.072336,44.070850 28.801880,46.419350 24.645664,46.995064 
	C23.849119,47.013649 23.394188,47.038597 22.939259,47.063545 
	C22.939259,47.063545 22.850491,46.681438 22.862247,46.485649 
z"/>
<path fill="#73DD3D" opacity="1.000000" stroke="none" 
	d="
M22.759493,47.351898 
	C23.394188,47.038597 23.849119,47.013649 24.654285,47.339935 
	C24.957851,48.147263 24.911180,48.603359 24.864510,49.059456 
	C24.126810,49.625381 23.389109,50.191307 22.386667,50.849586 
	C22.274527,49.841381 22.427128,48.740814 22.759493,47.351898 
z"/>
<path fill="#369006" opacity="1.000000" stroke="none" 
	d="
M25.016537,49.371819 
	C24.911180,48.603359 24.957851,48.147263 24.995903,47.346298 
	C28.801880,46.419350 30.072336,44.070850 29.264660,40.240761 
	C28.907570,37.916061 28.813437,35.812660 28.783455,35.142769 
	C32.677105,34.309845 35.483948,33.709408 38.945866,33.008949 
	C39.414909,32.239769 39.228882,31.570604 39.042850,30.901442 
	C39.042850,30.901442 39.057281,30.503624 39.403938,30.263094 
	C41.838173,29.307140 43.925755,28.591717 46.013332,27.876293 
	C45.635994,26.852966 45.258656,25.829638 44.881313,24.806309 
	C45.401543,24.524496 45.921768,24.242683 46.727905,23.853296 
	C47.458279,23.784529 47.902733,23.823336 48.682709,23.868250 
	C49.071350,24.067352 49.124474,24.260349 49.260742,24.742167 
	C48.961365,26.108175 48.578842,27.185360 48.202099,28.246271 
	C50.823639,28.934883 53.289482,29.582598 55.468567,30.602282 
	C52.186623,30.974251 49.191441,30.974251 46.196255,30.974251 
	C46.215664,31.130857 46.235077,31.287464 46.254486,31.444071 
	C48.188526,32.030540 50.122570,32.617012 52.056610,33.203484 
	C51.626621,33.178848 51.196636,33.154213 50.024048,33.071442 
	C47.543911,33.013306 45.806370,33.013306 44.068829,33.013306 
	C44.037380,33.241154 44.005936,33.469006 43.974487,33.696854 
	C45.954720,34.146420 47.934952,34.595989 49.915184,35.045555 
	C50.239105,35.522762 50.563026,35.999973 50.633244,36.747410 
	C47.710953,37.442928 45.042358,37.868214 42.410633,38.287628 
	C42.584221,39.145458 42.775871,40.092537 42.674992,40.917946 
	C41.744221,40.362961 41.105972,39.929653 39.880745,39.097839 
	C39.573235,42.730087 39.319462,45.727627 39.065689,48.725170 
	C38.905182,48.789513 38.744675,48.853851 38.200768,48.646526 
	C37.817364,46.081711 37.817364,43.788559 37.817364,41.166138 
	C36.010597,42.334263 34.200424,43.621346 34.130463,43.532837 
	C32.094971,40.957802 30.935314,43.234352 30.929056,44.508007 
	C30.913549,47.663937 31.567398,50.823151 31.952328,53.981045 
	C30.910093,54.291191 29.867861,54.601337 28.499372,54.947556 
	C27.171600,53.217144 26.170082,51.450661 25.016537,49.371819 
z"/>
<path fill="#4CA31A" opacity="1.000000" stroke="none" 
	d="
M44.522976,24.840611 
	C45.258656,25.829638 45.635994,26.852966 46.013332,27.876293 
	C43.925755,28.591717 41.838173,29.307140 39.399944,30.064095 
	C39.037048,29.919333 39.024803,29.733042 39.004944,29.266804 
	C39.642902,28.197632 40.288467,27.408407 41.072681,26.343819 
	C41.547844,26.009853 41.771435,25.818970 41.951450,25.276482 
	C42.735409,24.996407 43.450024,24.935659 44.522976,24.840611 
z"/>
<path fill="#774808" opacity="1.000000" stroke="none" 
	d="
M39.375740,48.923744 
	C39.319462,45.727627 39.573235,42.730087 39.880745,39.097839 
	C41.105972,39.929653 41.744221,40.362961 42.687164,40.905258 
	C42.991859,41.014244 42.971031,41.015278 43.062454,41.267292 
	C43.427227,41.746368 43.700581,41.973431 43.986763,42.497829 
	C44.029900,43.190819 44.060211,43.586472 44.113930,44.276054 
	C44.431290,44.728271 44.725243,44.886559 45.022469,45.020195 
	C45.025734,44.995544 44.977348,44.986633 44.977348,44.986633 
	C45.040112,46.380741 45.102875,47.774845 45.181686,49.595818 
	C43.945816,50.892925 42.693897,51.763172 41.155304,52.853638 
	C40.474350,51.756672 40.080070,50.439495 39.375740,48.923744 
z"/>
<path fill="#A15400" opacity="1.000000" stroke="none" 
	d="
M47.792351,63.749134 
	C48.397980,64.186638 48.717350,64.397423 49.100914,65.075951 
	C49.165100,65.543694 49.011497,66.016273 49.011497,66.016273 
	C47.272251,66.314606 45.533005,66.612938 43.420570,66.968201 
	C43.047379,64.097389 43.047379,61.169643 43.047379,58.241898 
	C43.724171,58.123726 44.400963,58.005550 45.077751,57.887379 
	C45.887199,59.765724 46.696648,61.644073 47.792351,63.749134 
z"/>
<path fill="#F78268" opacity="1.000000" stroke="none" 
	d="
M49.083282,66.245903 
	C49.011497,66.016273 49.165100,65.543694 49.265598,65.316643 
	C49.450119,65.607559 49.534142,66.125526 49.453766,66.790543 
	C49.289368,66.937592 49.155064,66.475533 49.083282,66.245903 
z"/>
<path fill="#4BAA19" opacity="1.000000" stroke="none" 
	d="
M44.090523,43.982124 
	C44.060211,43.586472 44.029900,43.190819 43.906670,42.233223 
	C43.532845,41.452610 43.251938,41.233944 42.971031,41.015278 
	C42.971031,41.015278 42.991859,41.014244 42.979691,41.026932 
	C42.775871,40.092537 42.584221,39.145458 42.410633,38.287628 
	C45.042358,37.868214 47.710953,37.442928 50.754181,37.009689 
	C51.913513,37.328892 52.698204,37.656048 53.803905,38.021881 
	C54.694115,39.162960 55.263309,40.265358 55.894936,41.688316 
	C53.498310,42.218082 51.078697,44.467342 48.570839,42.151672 
	C48.053757,42.835884 47.536674,43.520096 46.999718,44.563721 
	C46.533249,44.912403 46.086651,44.901669 45.308701,44.938782 
	C44.977348,44.986633 45.025734,44.995544 44.993927,44.756714 
	C44.671589,44.339302 44.381054,44.160713 44.090523,43.982124 
z"/>
<path fill="#57BA24" opacity="1.000000" stroke="none" 
	d="
M32.191582,54.252285 
	C31.567398,50.823151 30.913549,47.663937 30.929056,44.508007 
	C30.935314,43.234352 32.094971,40.957802 34.130463,43.532837 
	C34.200424,43.621346 36.010597,42.334263 37.817364,41.166138 
	C37.817364,43.788559 37.817364,46.081711 37.945129,48.690460 
	C37.650257,50.201500 37.227615,51.396942 36.267048,52.941593 
	C35.527588,53.893242 35.326054,54.495682 35.124519,55.098122 
	C35.124516,55.098122 35.200745,55.140251 35.215347,55.180275 
	C34.296913,54.988041 33.363876,54.755783 32.191582,54.252285 
M33.460083,48.229832 
	C33.589199,47.834652 33.739529,47.444199 33.829624,47.040318 
	C33.847752,46.959053 33.637249,46.826790 33.532166,46.718037 
	C33.404335,47.112385 33.276505,47.506733 33.460083,48.229832 
z"/>
<path fill="#4E9D15" opacity="1.000000" stroke="none" 
	d="
M35.453697,55.032089 
	C35.326054,54.495682 35.527588,53.893242 36.046265,53.176777 
	C36.169895,53.697186 35.976387,54.331623 35.453697,55.032089 
z"/>
<path fill="#48A917" opacity="1.000000" stroke="none" 
	d="
M61.410664,35.639862 
	C61.004429,35.530651 60.509583,35.086025 60.030220,34.285301 
	C60.471149,34.387619 60.896603,34.846031 61.410664,35.639862 
z"/>
<path fill="#48A917" opacity="1.000000" stroke="none" 
	d="
M59.086128,33.189606 
	C59.026272,32.918888 59.493053,32.951218 59.724922,32.982033 
	C59.956791,33.012852 60.056484,33.487728 60.067348,33.730267 
	C59.767471,33.801979 59.456730,33.631149 59.086128,33.189606 
z"/>
<path fill="#48A917" opacity="1.000000" stroke="none" 
	d="
M52.258224,33.457760 
	C50.122570,32.617012 48.188526,32.030540 46.254486,31.444071 
	C46.235077,31.287464 46.215664,31.130857 46.196255,30.974251 
	C49.191441,30.974251 52.186623,30.974251 55.641449,30.940157 
	C56.101093,30.906063 56.037163,30.937254 56.122742,31.187168 
	C56.474609,31.967710 56.740898,32.498337 57.007187,33.028961 
	C56.022591,36.792858 54.074348,34.141579 52.258224,33.457760 
z"/>
<path fill="#48A917" opacity="1.000000" stroke="none" 
	d="
M49.945587,34.720165 
	C47.934952,34.595989 45.954720,34.146420 43.974487,33.696854 
	C44.005936,33.469006 44.037380,33.241154 44.068829,33.013306 
	C45.806370,33.013306 47.543911,33.013306 49.701347,33.056557 
	C50.072823,33.531460 50.024406,33.963120 49.945587,34.720165 
z"/>
<path fill="#369006" opacity="1.000000" stroke="none" 
	d="
M57.353531,33.053658 
	C56.740898,32.498337 56.474609,31.967710 56.122017,31.151680 
	C56.967667,31.360109 57.899624,31.853947 58.954914,32.654976 
	C58.618790,33.000896 58.159336,33.039623 57.353531,33.053658 
z"/>
<path fill="#4CA31A" opacity="1.000000" stroke="none" 
	d="
M39.028198,31.244305 
	C39.228882,31.570604 39.414909,32.239769 39.306847,32.932003 
	C39.013016,32.499104 39.013283,32.043137 39.028198,31.244305 
z"/>
<path fill="#369006" opacity="1.000000" stroke="none" 
	d="
M28.685242,39.998962 
	C28.361622,40.176510 27.705126,40.351261 27.035381,40.263290 
	C27.465546,39.999107 27.908953,39.997639 28.685242,39.998962 
z"/>
<path fill="#F5B679" opacity="1.000000" stroke="none" 
	d="
M44.113930,44.276054 
	C44.381054,44.160713 44.671589,44.339302 44.990662,44.781368 
	C44.725243,44.886559 44.431290,44.728271 44.113930,44.276054 
z"/>
<path fill="#369006" opacity="1.000000" stroke="none" 
	d="
M43.062454,41.267292 
	C43.251938,41.233944 43.532845,41.452610 43.893845,41.935883 
	C43.700581,41.973431 43.427227,41.746368 43.062454,41.267292 
z"/>
<path fill="#369006" opacity="1.000000" stroke="none" 
	d="
M33.304379,48.065456 
	C33.276505,47.506733 33.404335,47.112385 33.532166,46.718037 
	C33.637249,46.826790 33.847752,46.959053 33.829624,47.040318 
	C33.739529,47.444199 33.589199,47.834652 33.304379,48.065456 
z"/>
</svg>